<svg width="144" height="111" viewBox="0 0 144 111" fill="none" xmlns="http://www.w3.org/2000/svg">
<path d="M6.42038 4.1281C6.42038 5.90134 4.98313 7.33884 3.21019 7.33884C1.43725 7.33884 0 5.90134 0 4.1281C0 2.35485 1.43725 0.917355 3.21019 0.917355C4.98313 0.917355 6.42038 2.35485 6.42038 4.1281Z" fill="#2C6AC7"/>
<path d="M29.3503 4.1281C29.3503 5.90134 27.9131 7.33884 26.1401 7.33884C24.3672 7.33884 22.9299 5.90134 22.9299 4.1281C22.9299 2.35485 24.3672 0.917355 26.1401 0.917355C27.9131 0.917355 29.3503 2.35485 29.3503 4.1281Z" fill="#2C6AC7"/>
<path d="M52.2803 4.1281C52.2803 5.90134 50.843 7.33884 49.0701 7.33884C47.2971 7.33884 45.8599 5.90134 45.8599 4.1281C45.8599 2.35485 47.2971 0.917355 49.0701 0.917355C50.843 0.917355 52.2803 2.35485 52.2803 4.1281Z" fill="#2C6AC7"/>
<path d="M75.2102 3.21074C75.2102 4.98399 73.7729 6.42149 72 6.42149C70.2271 6.42149 68.7898 4.98399 68.7898 3.21074C68.7898 1.4375 70.2271 0 72 0C73.7729 0 75.2102 1.4375 75.2102 3.21074Z" fill="#2C6AC7"/>
<path d="M98.1401 3.21074C98.1401 4.98399 96.7029 6.42149 94.9299 6.42149C93.157 6.42149 91.7197 4.98399 91.7197 3.21074C91.7197 1.4375 93.157 0 94.9299 0C96.7029 0 98.1401 1.4375 98.1401 3.21074Z" fill="#2C6AC7"/>
<path d="M121.07 3.21074C121.07 4.98399 119.633 6.42149 117.86 6.42149C116.087 6.42149 114.65 4.98399 114.65 3.21074C114.65 1.4375 116.087 0 117.86 0C119.633 0 121.07 1.4375 121.07 3.21074Z" fill="#2C6AC7"/>
<path d="M144 3.21074C144 4.98399 142.563 6.42149 140.79 6.42149C139.017 6.42149 137.58 4.98399 137.58 3.21074C137.58 1.4375 139.017 0 140.79 0C142.563 0 144 1.4375 144 3.21074Z" fill="#2C6AC7"/>
<path d="M6.42038 16.0537C6.42038 17.827 4.98313 19.2645 3.21019 19.2645C1.43725 19.2645 0 17.827 0 16.0537C0 14.2805 1.43725 12.843 3.21019 12.843C4.98313 12.843 6.42038 14.2805 6.42038 16.0537Z" fill="#2C6AC7"/>
<path d="M29.3503 16.0537C29.3503 17.827 27.9131 19.2645 26.1401 19.2645C24.3672 19.2645 22.9299 17.827 22.9299 16.0537C22.9299 14.2805 24.3672 12.843 26.1401 12.843C27.9131 12.843 29.3503 14.2805 29.3503 16.0537Z" fill="#2C6AC7"/>
<path d="M52.2803 16.0537C52.2803 17.827 50.843 19.2645 49.0701 19.2645C47.2971 19.2645 45.8599 17.827 45.8599 16.0537C45.8599 14.2805 47.2971 12.843 49.0701 12.843C50.843 12.843 52.2803 14.2805 52.2803 16.0537Z" fill="#2C6AC7"/>
<path d="M75.2102 15.1364C75.2102 16.9096 73.7729 18.3471 72 18.3471C70.2271 18.3471 68.7898 16.9096 68.7898 15.1364C68.7898 13.3631 70.2271 11.9256 72 11.9256C73.7729 11.9256 75.2102 13.3631 75.2102 15.1364Z" fill="#2C6AC7"/>
<path d="M98.1401 15.1364C98.1401 16.9096 96.7029 18.3471 94.9299 18.3471C93.157 18.3471 91.7197 16.9096 91.7197 15.1364C91.7197 13.3631 93.157 11.9256 94.9299 11.9256C96.7029 11.9256 98.1401 13.3631 98.1401 15.1364Z" fill="#2C6AC7"/>
<path d="M121.07 15.1364C121.07 16.9096 119.633 18.3471 117.86 18.3471C116.087 18.3471 114.65 16.9096 114.65 15.1364C114.65 13.3631 116.087 11.9256 117.86 11.9256C119.633 11.9256 121.07 13.3631 121.07 15.1364Z" fill="#2C6AC7"/>
<path d="M144 15.1364C144 16.9096 142.563 18.3471 140.79 18.3471C139.017 18.3471 137.58 16.9096 137.58 15.1364C137.58 13.3631 139.017 11.9256 140.79 11.9256C142.563 11.9256 144 13.3631 144 15.1364Z" fill="#2C6AC7"/>
<path d="M6.42038 27.062C6.42038 28.8352 4.98313 30.2727 3.21019 30.2727C1.43725 30.2727 0 28.8352 0 27.062C0 25.2887 1.43725 23.8512 3.21019 23.8512C4.98313 23.8512 6.42038 25.2887 6.42038 27.062Z" fill="#2C6AC7"/>
<path d="M29.3503 27.062C29.3503 28.8352 27.9131 30.2727 26.1401 30.2727C24.3672 30.2727 22.9299 28.8352 22.9299 27.062C22.9299 25.2887 24.3672 23.8512 26.1401 23.8512C27.9131 23.8512 29.3503 25.2887 29.3503 27.062Z" fill="#2C6AC7"/>
<path d="M52.2803 27.062C52.2803 28.8352 50.843 30.2727 49.0701 30.2727C47.2971 30.2727 45.8599 28.8352 45.8599 27.062C45.8599 25.2887 47.2971 23.8512 49.0701 23.8512C50.843 23.8512 52.2803 25.2887 52.2803 27.062Z" fill="#2C6AC7"/>
<path d="M75.2102 26.1446C75.2102 27.9179 73.7729 29.3554 72 29.3554C70.2271 29.3554 68.7898 27.9179 68.7898 26.1446C68.7898 24.3714 70.2271 22.9339 72 22.9339C73.7729 22.9339 75.2102 24.3714 75.2102 26.1446Z" fill="#2C6AC7"/>
<path d="M98.1401 26.1446C98.1401 27.9179 96.7029 29.3554 94.9299 29.3554C93.157 29.3554 91.7197 27.9179 91.7197 26.1446C91.7197 24.3714 93.157 22.9339 94.9299 22.9339C96.7029 22.9339 98.1401 24.3714 98.1401 26.1446Z" fill="#2C6AC7"/>
<path d="M121.07 26.1446C121.07 27.9179 119.633 29.3554 117.86 29.3554C116.087 29.3554 114.65 27.9179 114.65 26.1446C114.65 24.3714 116.087 22.9339 117.86 22.9339C119.633 22.9339 121.07 24.3714 121.07 26.1446Z" fill="#2C6AC7"/>
<path d="M144 26.1446C144 27.9179 142.563 29.3554 140.79 29.3554C139.017 29.3554 137.58 27.9179 137.58 26.1446C137.58 24.3714 139.017 22.9339 140.79 22.9339C142.563 22.9339 144 24.3714 144 26.1446Z" fill="#2C6AC7"/>
<path d="M6.42038 38.9876C6.42038 40.7608 4.98313 42.1983 3.21019 42.1983C1.43725 42.1983 0 40.7608 0 38.9876C0 37.2144 1.43725 35.7769 3.21019 35.7769C4.98313 35.7769 6.42038 37.2144 6.42038 38.9876Z" fill="#2C6AC7"/>
<path d="M29.3503 38.9876C29.3503 40.7608 27.9131 42.1983 26.1401 42.1983C24.3672 42.1983 22.9299 40.7608 22.9299 38.9876C22.9299 37.2144 24.3672 35.7769 26.1401 35.7769C27.9131 35.7769 29.3503 37.2144 29.3503 38.9876Z" fill="#2C6AC7"/>
<path d="M52.2803 38.9876C52.2803 40.7608 50.843 42.1983 49.0701 42.1983C47.2971 42.1983 45.8599 40.7608 45.8599 38.9876C45.8599 37.2144 47.2971 35.7769 49.0701 35.7769C50.843 35.7769 52.2803 37.2144 52.2803 38.9876Z" fill="#2C6AC7"/>
<path d="M75.2102 38.0702C75.2102 39.8435 73.7729 41.281 72 41.281C70.2271 41.281 68.7898 39.8435 68.7898 38.0702C68.7898 36.297 70.2271 34.8595 72 34.8595C73.7729 34.8595 75.2102 36.297 75.2102 38.0702Z" fill="#2C6AC7"/>
<path d="M98.1401 38.0702C98.1401 39.8435 96.7029 41.281 94.9299 41.281C93.157 41.281 91.7197 39.8435 91.7197 38.0702C91.7197 36.297 93.157 34.8595 94.9299 34.8595C96.7029 34.8595 98.1401 36.297 98.1401 38.0702Z" fill="#2C6AC7"/>
<path d="M121.07 38.0702C121.07 39.8435 119.633 41.281 117.86 41.281C116.087 41.281 114.65 39.8435 114.65 38.0702C114.65 36.297 116.087 34.8595 117.86 34.8595C119.633 34.8595 121.07 36.297 121.07 38.0702Z" fill="#2C6AC7"/>
<path d="M144 38.0702C144 39.8435 142.563 41.281 140.79 41.281C139.017 41.281 137.58 39.8435 137.58 38.0702C137.58 36.297 139.017 34.8595 140.79 34.8595C142.563 34.8595 144 36.297 144 38.0702Z" fill="#2C6AC7"/>
<path d="M6.42038 49.9959C6.42038 51.7691 4.98313 53.2066 3.21019 53.2066C1.43725 53.2066 0 51.7691 0 49.9959C0 48.2226 1.43725 46.7851 3.21019 46.7851C4.98313 46.7851 6.42038 48.2226 6.42038 49.9959Z" fill="#2C6AC7"/>
<path d="M29.3503 49.9959C29.3503 51.7691 27.9131 53.2066 26.1401 53.2066C24.3672 53.2066 22.9299 51.7691 22.9299 49.9959C22.9299 48.2226 24.3672 46.7851 26.1401 46.7851C27.9131 46.7851 29.3503 48.2226 29.3503 49.9959Z" fill="#2C6AC7"/>
<path d="M52.2803 49.9959C52.2803 51.7691 50.843 53.2066 49.0701 53.2066C47.2971 53.2066 45.8599 51.7691 45.8599 49.9959C45.8599 48.2226 47.2971 46.7851 49.0701 46.7851C50.843 46.7851 52.2803 48.2226 52.2803 49.9959Z" fill="#2C6AC7"/>
<path d="M75.2102 49.0785C75.2102 50.8518 73.7729 52.2893 72 52.2893C70.2271 52.2893 68.7898 50.8518 68.7898 49.0785C68.7898 47.3053 70.2271 45.8678 72 45.8678C73.7729 45.8678 75.2102 47.3053 75.2102 49.0785Z" fill="#2C6AC7"/>
<path d="M98.1401 49.0785C98.1401 50.8518 96.7029 52.2893 94.9299 52.2893C93.157 52.2893 91.7197 50.8518 91.7197 49.0785C91.7197 47.3053 93.157 45.8678 94.9299 45.8678C96.7029 45.8678 98.1401 47.3053 98.1401 49.0785Z" fill="#2C6AC7"/>
<path d="M121.07 49.0785C121.07 50.8518 119.633 52.2893 117.86 52.2893C116.087 52.2893 114.65 50.8518 114.65 49.0785C114.65 47.3053 116.087 45.8678 117.86 45.8678C119.633 45.8678 121.07 47.3053 121.07 49.0785Z" fill="#2C6AC7"/>
<path d="M144 49.0785C144 50.8518 142.563 52.2893 140.79 52.2893C139.017 52.2893 137.58 50.8518 137.58 49.0785C137.58 47.3053 139.017 45.8678 140.79 45.8678C142.563 45.8678 144 47.3053 144 49.0785Z" fill="#2C6AC7"/>
<path d="M6.42038 61.9215C6.42038 63.6947 4.98313 65.1322 3.21019 65.1322C1.43725 65.1322 0 63.6947 0 61.9215C0 60.1482 1.43725 58.7107 3.21019 58.7107C4.98313 58.7107 6.42038 60.1482 6.42038 61.9215Z" fill="#2C6AC7"/>
<path d="M29.3503 61.9215C29.3503 63.6947 27.9131 65.1322 26.1401 65.1322C24.3672 65.1322 22.9299 63.6947 22.9299 61.9215C22.9299 60.1482 24.3672 58.7107 26.1401 58.7107C27.9131 58.7107 29.3503 60.1482 29.3503 61.9215Z" fill="#2C6AC7"/>
<path d="M52.2803 61.9215C52.2803 63.6947 50.843 65.1322 49.0701 65.1322C47.2971 65.1322 45.8599 63.6947 45.8599 61.9215C45.8599 60.1482 47.2971 58.7107 49.0701 58.7107C50.843 58.7107 52.2803 60.1482 52.2803 61.9215Z" fill="#2C6AC7"/>
<path d="M75.2102 61.0041C75.2102 62.7774 73.7729 64.2149 72 64.2149C70.2271 64.2149 68.7898 62.7774 68.7898 61.0041C68.7898 59.2309 70.2271 57.7934 72 57.7934C73.7729 57.7934 75.2102 59.2309 75.2102 61.0041Z" fill="#2C6AC7"/>
<path d="M98.1401 61.0041C98.1401 62.7774 96.7029 64.2149 94.9299 64.2149C93.157 64.2149 91.7197 62.7774 91.7197 61.0041C91.7197 59.2309 93.157 57.7934 94.9299 57.7934C96.7029 57.7934 98.1401 59.2309 98.1401 61.0041Z" fill="#2C6AC7"/>
<path d="M121.07 61.0041C121.07 62.7774 119.633 64.2149 117.86 64.2149C116.087 64.2149 114.65 62.7774 114.65 61.0041C114.65 59.2309 116.087 57.7934 117.86 57.7934C119.633 57.7934 121.07 59.2309 121.07 61.0041Z" fill="#2C6AC7"/>
<path d="M144 61.0041C144 62.7774 142.563 64.2149 140.79 64.2149C139.017 64.2149 137.58 62.7774 137.58 61.0041C137.58 59.2309 139.017 57.7934 140.79 57.7934C142.563 57.7934 144 59.2309 144 61.0041Z" fill="#2C6AC7"/>
<path d="M6.42038 72.9297C6.42038 74.703 4.98313 76.1405 3.21019 76.1405C1.43725 76.1405 0 74.703 0 72.9297C0 71.1565 1.43725 69.719 3.21019 69.719C4.98313 69.719 6.42038 71.1565 6.42038 72.9297Z" fill="#2C6AC7"/>
<path d="M29.3503 72.9297C29.3503 74.703 27.9131 76.1405 26.1401 76.1405C24.3672 76.1405 22.9299 74.703 22.9299 72.9297C22.9299 71.1565 24.3672 69.719 26.1401 69.719C27.9131 69.719 29.3503 71.1565 29.3503 72.9297Z" fill="#2C6AC7"/>
<path d="M52.2803 72.9297C52.2803 74.703 50.843 76.1405 49.0701 76.1405C47.2971 76.1405 45.8599 74.703 45.8599 72.9297C45.8599 71.1565 47.2971 69.719 49.0701 69.719C50.843 69.719 52.2803 71.1565 52.2803 72.9297Z" fill="#2C6AC7"/>
<path d="M75.2102 72.0124C75.2102 73.7856 73.7729 75.2231 72 75.2231C70.2271 75.2231 68.7898 73.7856 68.7898 72.0124C68.7898 70.2392 70.2271 68.8017 72 68.8017C73.7729 68.8017 75.2102 70.2392 75.2102 72.0124Z" fill="#2C6AC7"/>
<path d="M98.1401 72.0124C98.1401 73.7856 96.7029 75.2231 94.9299 75.2231C93.157 75.2231 91.7197 73.7856 91.7197 72.0124C91.7197 70.2392 93.157 68.8017 94.9299 68.8017C96.7029 68.8017 98.1401 70.2392 98.1401 72.0124Z" fill="#2C6AC7"/>
<path d="M121.07 72.0124C121.07 73.7856 119.633 75.2231 117.86 75.2231C116.087 75.2231 114.65 73.7856 114.65 72.0124C114.65 70.2392 116.087 68.8017 117.86 68.8017C119.633 68.8017 121.07 70.2392 121.07 72.0124Z" fill="#2C6AC7"/>
<path d="M144 72.0124C144 73.7856 142.563 75.2231 140.79 75.2231C139.017 75.2231 137.58 73.7856 137.58 72.0124C137.58 70.2392 139.017 68.8017 140.79 68.8017C142.563 68.8017 144 70.2392 144 72.0124Z" fill="#2C6AC7"/>
<path d="M6.42038 84.8554C6.42038 86.6286 4.98313 88.0661 3.21019 88.0661C1.43725 88.0661 0 86.6286 0 84.8554C0 83.0821 1.43725 81.6446 3.21019 81.6446C4.98313 81.6446 6.42038 83.0821 6.42038 84.8554Z" fill="#2C6AC7"/>
<path d="M29.3503 84.8554C29.3503 86.6286 27.9131 88.0661 26.1401 88.0661C24.3672 88.0661 22.9299 86.6286 22.9299 84.8554C22.9299 83.0821 24.3672 81.6446 26.1401 81.6446C27.9131 81.6446 29.3503 83.0821 29.3503 84.8554Z" fill="#2C6AC7"/>
<path d="M52.2803 84.8554C52.2803 86.6286 50.843 88.0661 49.0701 88.0661C47.2971 88.0661 45.8599 86.6286 45.8599 84.8554C45.8599 83.0821 47.2971 81.6446 49.0701 81.6446C50.843 81.6446 52.2803 83.0821 52.2803 84.8554Z" fill="#2C6AC7"/>
<path d="M75.2102 83.938C75.2102 85.7113 73.7729 87.1488 72 87.1488C70.2271 87.1488 68.7898 85.7113 68.7898 83.938C68.7898 82.1648 70.2271 80.7273 72 80.7273C73.7729 80.7273 75.2102 82.1648 75.2102 83.938Z" fill="#2C6AC7"/>
<path d="M98.1401 83.938C98.1401 85.7113 96.7029 87.1488 94.9299 87.1488C93.157 87.1488 91.7197 85.7113 91.7197 83.938C91.7197 82.1648 93.157 80.7273 94.9299 80.7273C96.7029 80.7273 98.1401 82.1648 98.1401 83.938Z" fill="#2C6AC7"/>
<path d="M121.07 83.938C121.07 85.7113 119.633 87.1488 117.86 87.1488C116.087 87.1488 114.65 85.7113 114.65 83.938C114.65 82.1648 116.087 80.7273 117.86 80.7273C119.633 80.7273 121.07 82.1648 121.07 83.938Z" fill="#2C6AC7"/>
<path d="M144 83.938C144 85.7113 142.563 87.1488 140.79 87.1488C139.017 87.1488 137.58 85.7113 137.58 83.938C137.58 82.1648 139.017 80.7273 140.79 80.7273C142.563 80.7273 144 82.1648 144 83.938Z" fill="#2C6AC7"/>
<path d="M6.42038 95.8636C6.42038 97.6369 4.98313 99.0744 3.21019 99.0744C1.43725 99.0744 0 97.6369 0 95.8636C0 94.0904 1.43725 92.6529 3.21019 92.6529C4.98313 92.6529 6.42038 94.0904 6.42038 95.8636Z" fill="#2C6AC7"/>
<path d="M29.3503 95.8636C29.3503 97.6369 27.9131 99.0744 26.1401 99.0744C24.3672 99.0744 22.9299 97.6369 22.9299 95.8636C22.9299 94.0904 24.3672 92.6529 26.1401 92.6529C27.9131 92.6529 29.3503 94.0904 29.3503 95.8636Z" fill="#2C6AC7"/>
<path d="M52.2803 95.8636C52.2803 97.6369 50.843 99.0744 49.0701 99.0744C47.2971 99.0744 45.8599 97.6369 45.8599 95.8636C45.8599 94.0904 47.2971 92.6529 49.0701 92.6529C50.843 92.6529 52.2803 94.0904 52.2803 95.8636Z" fill="#2C6AC7"/>
<path d="M75.2102 94.9463C75.2102 96.7195 73.7729 98.157 72 98.157C70.2271 98.157 68.7898 96.7195 68.7898 94.9463C68.7898 93.173 70.2271 91.7355 72 91.7355C73.7729 91.7355 75.2102 93.173 75.2102 94.9463Z" fill="#2C6AC7"/>
<path d="M98.1401 94.9463C98.1401 96.7195 96.7029 98.157 94.9299 98.157C93.157 98.157 91.7197 96.7195 91.7197 94.9463C91.7197 93.173 93.157 91.7355 94.9299 91.7355C96.7029 91.7355 98.1401 93.173 98.1401 94.9463Z" fill="#2C6AC7"/>
<path d="M121.07 94.9463C121.07 96.7195 119.633 98.157 117.86 98.157C116.087 98.157 114.65 96.7195 114.65 94.9463C114.65 93.173 116.087 91.7355 117.86 91.7355C119.633 91.7355 121.07 93.173 121.07 94.9463Z" fill="#2C6AC7"/>
<path d="M144 94.9463C144 96.7195 142.563 98.157 140.79 98.157C139.017 98.157 137.58 96.7195 137.58 94.9463C137.58 93.173 139.017 91.7355 140.79 91.7355C142.563 91.7355 144 93.173 144 94.9463Z" fill="#2C6AC7"/>
<path d="M6.42038 107.789C6.42038 109.562 4.98313 111 3.21019 111C1.43725 111 0 109.562 0 107.789C0 106.016 1.43725 104.579 3.21019 104.579C4.98313 104.579 6.42038 106.016 6.42038 107.789Z" fill="#2C6AC7"/>
<path d="M29.3503 107.789C29.3503 109.562 27.9131 111 26.1401 111C24.3672 111 22.9299 109.562 22.9299 107.789C22.9299 106.016 24.3672 104.579 26.1401 104.579C27.9131 104.579 29.3503 106.016 29.3503 107.789Z" fill="#2C6AC7"/>
<path d="M52.2803 107.789C52.2803 109.562 50.843 111 49.0701 111C47.2971 111 45.8599 109.562 45.8599 107.789C45.8599 106.016 47.2971 104.579 49.0701 104.579C50.843 104.579 52.2803 106.016 52.2803 107.789Z" fill="#2C6AC7"/>
<path d="M75.2102 106.872C75.2102 108.645 73.7729 110.083 72 110.083C70.2271 110.083 68.7898 108.645 68.7898 106.872C68.7898 105.099 70.2271 103.661 72 103.661C73.7729 103.661 75.2102 105.099 75.2102 106.872Z" fill="#2C6AC7"/>
<path d="M98.1401 106.872C98.1401 108.645 96.7029 110.083 94.9299 110.083C93.157 110.083 91.7197 108.645 91.7197 106.872C91.7197 105.099 93.157 103.661 94.9299 103.661C96.7029 103.661 98.1401 105.099 98.1401 106.872Z" fill="#2C6AC7"/>
<path d="M121.07 106.872C121.07 108.645 119.633 110.083 117.86 110.083C116.087 110.083 114.65 108.645 114.65 106.872C114.65 105.099 116.087 103.661 117.86 103.661C119.633 103.661 121.07 105.099 121.07 106.872Z" fill="#2C6AC7"/>
<path d="M144 106.872C144 108.645 142.563 110.083 140.79 110.083C139.017 110.083 137.58 108.645 137.58 106.872C137.58 105.099 139.017 103.661 140.79 103.661C142.563 103.661 144 105.099 144 106.872Z" fill="#2C6AC7"/>
</svg>
