<svg width="359" height="550" viewBox="0 0 359 550" fill="none" xmlns="http://www.w3.org/2000/svg">
<path d="M303.663 3.01604C304.644 1.35033 306.79 0.795057 308.455 1.77581C310.121 2.75656 310.676 4.90195 309.696 6.56766L7.80791 519.295C6.82717 520.96 4.68178 521.516 3.01606 520.535C1.35035 519.554 0.795085 517.409 1.77583 515.743L303.663 3.01604Z" fill="#B04141"/>
<path d="M319.175 12.1488C320.155 10.4831 322.301 9.92779 323.966 10.9085C325.632 11.8893 326.187 14.0347 325.207 15.7004L23.319 528.427C22.3382 530.093 20.1928 530.648 18.5271 529.668C16.8614 528.687 16.3062 526.541 17.2869 524.876L319.175 12.1488Z" fill="#B04141"/>
<path d="M334.686 21.2815C335.666 19.6158 337.812 19.0605 339.477 20.0413C341.143 21.022 341.698 23.1674 340.718 24.8331L38.83 537.56C37.8493 539.226 35.7039 539.781 34.0382 538.8C32.3725 537.819 31.8172 535.674 32.798 534.008L334.686 21.2815Z" fill="#B04141"/>
<path d="M350.197 30.4142C351.177 28.7485 353.323 28.1933 354.989 29.174C356.654 30.1548 357.209 32.3002 356.229 33.9659L54.3411 546.693C53.3604 548.358 51.215 548.914 49.5493 547.933C47.8835 546.952 47.3283 544.807 48.309 543.141L350.197 30.4142Z" fill="#B04141"/>
</svg>
